<svg width="24" height="24" viewBox="0 0 24 24" fill="none" xmlns="http://www.w3.org/2000/svg">
<g clip-path="url(#clip0_150_268)">
<path d="M23.4736 4.44557C23.0186 3.88963 22.3109 3.55174 21.5785 3.55174H6.19066L5.71097 1.76408C5.43262 0.724885 4.47323 0 3.36082 0H0.783719C0.354361 0 0 0.337893 0 0.749434C0 1.16001 0.353351 1.49887 0.783719 1.49887H3.36082C3.73985 1.49887 4.06854 1.7405 4.1692 2.10294L7.25167 13.8466C7.53003 14.8857 8.48941 15.6106 9.60182 15.6106H19.6833C20.7947 15.6106 21.7808 14.8857 22.0335 13.8466L23.9286 6.40416C24.1053 5.72647 23.9543 5.00158 23.4736 4.44564L23.4736 4.44557ZM22.3879 6.06429L20.4928 13.5067C20.3921 13.8691 20.0634 14.1107 19.6844 14.1107H9.60185C9.22282 14.1107 8.89413 13.8691 8.79347 13.5067L6.59533 5.07434H21.5796C21.8323 5.07434 22.085 5.19515 22.237 5.38865C22.388 5.5812 22.463 5.82283 22.388 6.06446L22.3879 6.06429Z" fill="white"/>
<path d="M10.1332 17.9778C8.69316 17.9778 7.50586 19.1132 7.50586 20.4902C7.50586 21.8672 8.69326 23.0027 10.1332 23.0027C11.5733 23.0036 12.7606 21.8682 12.7606 20.491C12.7606 19.1137 11.5732 17.9775 10.1332 17.9775V17.9778ZM10.1332 21.4814C9.55188 21.4814 9.09685 21.0463 9.09685 20.4903C9.09685 19.9344 9.55188 19.4993 10.1332 19.4993C10.7146 19.4993 11.1696 19.9344 11.1696 20.4903C11.1687 21.0227 10.689 21.4814 10.1332 21.4814Z" fill="white"/>
<path d="M18.8251 17.978C17.3851 17.978 16.1978 19.1135 16.1978 20.4905C16.1978 21.8675 17.3852 23.0029 18.8251 23.0029C20.2651 23.0029 21.4525 21.8675 21.4525 20.4905C21.4279 19.1143 20.2651 17.978 18.8251 17.978ZM18.8251 21.4816C18.2438 21.4816 17.7887 21.0465 17.7887 20.4906C17.7887 19.9346 18.2438 19.4995 18.8251 19.4995C19.4065 19.4995 19.8615 19.9346 19.8615 20.4906C19.8615 21.0229 19.3809 21.4816 18.8251 21.4816Z" fill="white"/>
</g>
<defs>
<clipPath id="clip0_150_268">
<rect width="24" height="24" fill="white"/>
</clipPath>
</defs>
</svg>
